# xmcd
#
# Track frame offsets:
#	150
#	16569
#	31329
#	49264
#	66729
#	83048
#	95109
#	110411
#	125576
#	144026
#	161233
#
# Disc length: 2282 seconds
#
# Revision: 1
# Processed by: cddbd v1.4PL0 Copyright (c) Steve Scherf et al.
# Submitted via: EasyCDDAExtractor 5.1.0
#
DISCID=9208e80b
DTITLE=Diamondback - Texas
DYEAR=1996
DGENRE=Country
TTITLE0=Lonely Teardrops
TTITLE1=Find My Way
TTITLE2=Single Man Again
TTITLE3=Hottest Thing In Town
TTITLE4=Oh You
TTITLE5=The Little Things
TTITLE6=Ain't No Sunshine (when you're gone)
TTITLE7=Gooseneck Trailer
TTITLE8=I Don't Know
TTITLE9=Back To The Country
TTITLE10=Bonus Track (instrumental)
EXTD=
EXTT0=
EXTT1=
EXTT2=
EXTT3=
EXTT4=
EXTT5=
EXTT6=
EXTT7=
EXTT8=
EXTT9=
EXTT10=
PLAYORDER=
